<svg id="Camada_1" data-name="Camada 1" xmlns="http://www.w3.org/2000/svg" viewBox="0 0 283.46 245.92"><defs><style>.cls-1{fill:#fff;}</style></defs><title>Logo HST 300x300</title><path class="cls-1" d="M92.73,228.88h4.41v7.92h8.13v-7.92h4.41v20h-4.41v-8H97.14v8H92.73Z" transform="translate(-9.09 -29)"/><path class="cls-1" d="M120.21,249.2a13.15,13.15,0,0,1-4.49-.79,12,12,0,0,1-4-2.41l2.61-3.13a12.65,12.65,0,0,0,2.82,1.78,7.52,7.52,0,0,0,3.16.66,3.85,3.85,0,0,0,2.13-.5,1.58,1.58,0,0,0,.76-1.39v-.06a1.67,1.67,0,0,0-.16-.76,1.51,1.51,0,0,0-.6-.61,6.22,6.22,0,0,0-1.23-.58c-.53-.19-1.21-.39-2.06-.6a24.46,24.46,0,0,1-2.75-.83,7.74,7.74,0,0,1-2.1-1.13,4.63,4.63,0,0,1-1.33-1.67,5.76,5.76,0,0,1-.48-2.49v-.06a5.85,5.85,0,0,1,.52-2.48,5.67,5.67,0,0,1,1.43-1.9,6.51,6.51,0,0,1,2.21-1.23,8.8,8.8,0,0,1,2.83-.43,12,12,0,0,1,4,.66,11.78,11.78,0,0,1,3.39,1.89l-2.29,3.32A14.72,14.72,0,0,0,122,233a6.81,6.81,0,0,0-2.58-.53,3.13,3.13,0,0,0-1.93.5,1.53,1.53,0,0,0-.64,1.25v.05a1.87,1.87,0,0,0,.18.85,1.7,1.7,0,0,0,.68.64,6.21,6.21,0,0,0,1.33.55c.57.17,1.28.37,2.14.6a21,21,0,0,1,2.71.9,7.75,7.75,0,0,1,2,1.2,4.61,4.61,0,0,1,1.24,1.65,5.7,5.7,0,0,1,.41,2.26V243a6.24,6.24,0,0,1-.54,2.65,5.42,5.42,0,0,1-1.5,1.94,6.87,6.87,0,0,1-2.31,1.21A10.32,10.32,0,0,1,120.21,249.2Z" transform="translate(-9.09 -29)"/><path class="cls-1" d="M141.77,232.94h-6.1v-4.06h16.61v4.06h-6.1v16h-4.41Z" transform="translate(-9.09 -29)"/><path class="cls-1" d="M154.22,228.88h15.09v3.92H158.57v4.06H168v3.92h-9.45V245h10.88v3.92H154.22Z" transform="translate(-9.09 -29)"/><path class="cls-1" d="M181.36,249.26a10.43,10.43,0,0,1-4.09-.8,10.32,10.32,0,0,1-3.27-2.19,10,10,0,0,1-2.14-3.28,10.5,10.5,0,0,1-.78-4v-.06a10.48,10.48,0,0,1,2.92-7.31,10,10,0,0,1,3.3-2.23,10.57,10.57,0,0,1,4.23-.82,13.57,13.57,0,0,1,2.57.23,10.34,10.34,0,0,1,2.1.63,9.57,9.57,0,0,1,1.75,1,12.78,12.78,0,0,1,1.48,1.26l-2.8,3.24a10.42,10.42,0,0,0-2.39-1.66,6.1,6.1,0,0,0-2.74-.6,5.65,5.65,0,0,0-2.33.48,5.52,5.52,0,0,0-1.84,1.35,6.29,6.29,0,0,0-1.21,2,6.88,6.88,0,0,0-.43,2.42v0a7.08,7.08,0,0,0,.43,2.44,6.55,6.55,0,0,0,1.19,2,5.49,5.49,0,0,0,4.19,1.86,6.14,6.14,0,0,0,2.91-.63,11.11,11.11,0,0,0,2.36-1.72l2.81,2.84a14.88,14.88,0,0,1-1.61,1.49,9.84,9.84,0,0,1-1.81,1.13A9.6,9.6,0,0,1,184,249,12.6,12.6,0,0,1,181.36,249.26Z" transform="translate(-9.09 -29)"/><path class="cls-1" d="M191.67,228.88h4.4v7.92h8.13v-7.92h4.41v20H204.2v-8h-8.13v8h-4.4Z" transform="translate(-9.09 -29)"/><path class="cls-1" d="M14.82,272a8.39,8.39,0,0,1-3.07-.55,8.87,8.87,0,0,1-2.66-1.7l1-1.16a8.35,8.35,0,0,0,2.23,1.49,6.28,6.28,0,0,0,2.58.49,3.58,3.58,0,0,0,2.28-.67,2.1,2.1,0,0,0,.85-1.71v0a2.41,2.41,0,0,0-.16-.87,1.82,1.82,0,0,0-.57-.72,4.2,4.2,0,0,0-1.11-.58,15,15,0,0,0-1.82-.5,14.09,14.09,0,0,1-2.1-.6,5.13,5.13,0,0,1-1.47-.82A3,3,0,0,1,9.91,263a3.87,3.87,0,0,1-.28-1.51v0a3.57,3.57,0,0,1,.34-1.53,3.73,3.73,0,0,1,1-1.21,4.73,4.73,0,0,1,1.47-.8,5.42,5.42,0,0,1,1.84-.29,7.65,7.65,0,0,1,2.7.43,8.47,8.47,0,0,1,2.23,1.29l-.92,1.22a7,7,0,0,0-2-1.16A6.11,6.11,0,0,0,14.2,259a3.37,3.37,0,0,0-2.18.65,2,2,0,0,0-.8,1.62v0a2.48,2.48,0,0,0,.15.89,1.78,1.78,0,0,0,.59.72,4.15,4.15,0,0,0,1.16.6A13.91,13.91,0,0,0,15,264a8.34,8.34,0,0,1,3.46,1.44A3.12,3.12,0,0,1,19.59,268v0a3.65,3.65,0,0,1-.36,1.63,3.52,3.52,0,0,1-1,1.25,4.23,4.23,0,0,1-1.5.8A6.25,6.25,0,0,1,14.82,272Z" transform="translate(-9.09 -29)"/><path class="cls-1" d="M28.33,272.06a7.12,7.12,0,0,1-2.92-.59,6.8,6.8,0,0,1-2.25-1.57,7.15,7.15,0,0,1-1.46-2.3,7.59,7.59,0,0,1-.51-2.76v0a7.4,7.4,0,0,1,.53-2.76,6.94,6.94,0,0,1,3.72-3.9,7.17,7.17,0,0,1,2.93-.59A6.91,6.91,0,0,1,35,262a7.5,7.5,0,0,1,.51,2.75s0,0,0,0a7.45,7.45,0,0,1-.52,2.77,7,7,0,0,1-3.73,3.9A7.12,7.12,0,0,1,28.33,272.06Zm0-1.47a5.36,5.36,0,0,0,2.21-.45,5.14,5.14,0,0,0,1.73-1.23,6,6,0,0,0,1.14-1.82,6.2,6.2,0,0,0,.41-2.25v0a6.2,6.2,0,0,0-.41-2.25,5.64,5.64,0,0,0-1.16-1.84,5.51,5.51,0,0,0-1.75-1.24,5.62,5.62,0,0,0-4.43,0,5.24,5.24,0,0,0-1.73,1.23,5.69,5.69,0,0,0-1.13,1.83,5.91,5.91,0,0,0-.41,2.24v0a6,6,0,0,0,.41,2.26,5.41,5.41,0,0,0,1.15,1.83,5.62,5.62,0,0,0,1.75,1.24A5.28,5.28,0,0,0,28.37,270.59Z" transform="translate(-9.09 -29)"/><path class="cls-1" d="M37.84,257.79h1.59v12.56h7.89v1.47H37.84Z" transform="translate(-9.09 -29)"/><path class="cls-1" d="M54.86,272a7,7,0,0,1-2.38-.4,4.89,4.89,0,0,1-1.84-1.16,5.21,5.21,0,0,1-1.19-1.91,7.6,7.6,0,0,1-.42-2.63v-8.15h1.58v8a5,5,0,0,0,1.13,3.51,4.08,4.08,0,0,0,3.16,1.22A4.14,4.14,0,0,0,58,269.41a4.76,4.76,0,0,0,1.14-3.47v-8.15h1.58v8a8,8,0,0,1-.42,2.71,5.34,5.34,0,0,1-1.19,1.94,5,5,0,0,1-1.85,1.17A6.92,6.92,0,0,1,54.86,272Z" transform="translate(-9.09 -29)"/><path class="cls-1" d="M67.36,274.24,68.9,272a7,7,0,0,1-2.44-.8,6.49,6.49,0,0,1-1.92-1.56,7,7,0,0,1-1.26-2.18,7.59,7.59,0,0,1-.45-2.62v0a7.5,7.5,0,0,1,.53-2.8,7.25,7.25,0,0,1,1.48-2.32,6.84,6.84,0,0,1,2.24-1.56,7,7,0,0,1,2.85-.57,8.28,8.28,0,0,1,1.73.16,7.48,7.48,0,0,1,1.43.45,6.35,6.35,0,0,1,1.22.7,10.31,10.31,0,0,1,1.09.91l-1.09,1.16a8.76,8.76,0,0,0-1.93-1.38,5.73,5.73,0,0,0-4.63-.1A5.39,5.39,0,0,0,66,260.67a5.59,5.59,0,0,0-1.14,1.84,6,6,0,0,0-.41,2.25v0a6.08,6.08,0,0,0,.41,2.28A5.55,5.55,0,0,0,66,268.91a5.42,5.42,0,0,0,1.72,1.23,5.16,5.16,0,0,0,2.16.45,5.44,5.44,0,0,0,2.48-.53,8.29,8.29,0,0,0,2-1.49l1,1a10.74,10.74,0,0,1-1.08,1,7.18,7.18,0,0,1-1.21.75,6.68,6.68,0,0,1-1.38.52,8.66,8.66,0,0,1-1.62.23l-1.32,2.86Z" transform="translate(-9.09 -29)"/><path class="cls-1" d="M83.75,272.06a7,7,0,0,1-2.91-.59,6.84,6.84,0,0,1-2.26-1.57,7,7,0,0,1-1.45-2.3,7.59,7.59,0,0,1-.51-2.76v0a7.4,7.4,0,0,1,.52-2.76,7.31,7.31,0,0,1,1.46-2.32,7.2,7.2,0,0,1,10.36,0A6.93,6.93,0,0,1,90.42,262a7.5,7.5,0,0,1,.51,2.75s0,0,0,0a7.65,7.65,0,0,1-.52,2.77,7.12,7.12,0,0,1-1.47,2.31,7,7,0,0,1-5.19,2.18Zm0-1.47a5.4,5.4,0,0,0,2.22-.45,5.24,5.24,0,0,0,1.73-1.23,5.76,5.76,0,0,0,1.13-1.82,6,6,0,0,0,.41-2.25v0a6,6,0,0,0-.41-2.25,5.49,5.49,0,0,0-2.9-3.08,5.44,5.44,0,0,0-2.22-.46,5.36,5.36,0,0,0-2.21.45,5.28,5.28,0,0,0-1.74,1.23,5.87,5.87,0,0,0-1.13,1.83,6.11,6.11,0,0,0-.41,2.24v0a6.25,6.25,0,0,0,.41,2.26,5.6,5.6,0,0,0,1.16,1.83,5.51,5.51,0,0,0,1.75,1.24A5.21,5.21,0,0,0,83.79,270.59Zm-3.3-14.13a3.83,3.83,0,0,1,.74-1.62,1.49,1.49,0,0,1,1.16-.48,2,2,0,0,1,.7.13l.72.28.69.27a1.63,1.63,0,0,0,.58.12.8.8,0,0,0,.61-.22,2.5,2.5,0,0,0,.43-.76l.94.26a4,4,0,0,1-.74,1.62,1.48,1.48,0,0,1-1.16.49,2.25,2.25,0,0,1-.71-.12c-.24-.09-.48-.17-.72-.28l-.68-.28a1.65,1.65,0,0,0-.58-.13.82.82,0,0,0-.61.22,2.63,2.63,0,0,0-.43.76Z" transform="translate(-9.09 -29)"/><path class="cls-1" d="M93.27,257.79h10.14v1.42H94.85V264h7.66v1.42H94.85v4.93h8.66v1.43H93.27Z" transform="translate(-9.09 -29)"/><path class="cls-1" d="M110.52,272a8.43,8.43,0,0,1-3.07-.55,8.87,8.87,0,0,1-2.66-1.7l1-1.16A8.16,8.16,0,0,0,108,270.1a6.35,6.35,0,0,0,2.58.49,3.58,3.58,0,0,0,2.28-.67,2.1,2.1,0,0,0,.85-1.71v0a2.21,2.21,0,0,0-.16-.87,1.88,1.88,0,0,0-.56-.72,4.28,4.28,0,0,0-1.12-.58,14.49,14.49,0,0,0-1.82-.5,13.6,13.6,0,0,1-2.09-.6,5.06,5.06,0,0,1-1.48-.82,3,3,0,0,1-.87-1.12,3.87,3.87,0,0,1-.28-1.51v0a3.57,3.57,0,0,1,.34-1.53,3.63,3.63,0,0,1,1-1.21,4.57,4.57,0,0,1,1.46-.8,5.42,5.42,0,0,1,1.84-.29,7.65,7.65,0,0,1,2.7.43,8.47,8.47,0,0,1,2.23,1.29l-.92,1.22a6.87,6.87,0,0,0-2-1.16,6.07,6.07,0,0,0-2.08-.36,3.37,3.37,0,0,0-2.18.65,2,2,0,0,0-.8,1.62v0a2.28,2.28,0,0,0,.16.89,1.75,1.75,0,0,0,.58.72,4.29,4.29,0,0,0,1.16.6,13.91,13.91,0,0,0,1.9.51,8.34,8.34,0,0,1,3.46,1.44,3.12,3.12,0,0,1,1.11,2.53v0a3.62,3.62,0,0,1-1.33,2.88,4.27,4.27,0,0,1-1.51.8A6.25,6.25,0,0,1,110.52,272Z" transform="translate(-9.09 -29)"/><path class="cls-1" d="M122.53,257.79h10.14v1.42h-8.56V264h7.66v1.42h-7.66v4.93h8.66v1.43H122.53Z" transform="translate(-9.09 -29)"/><path class="cls-1" d="M135,257.79h1.6l5.11,7.65,5.12-7.65h1.6v14h-1.59V260.45L141.68,268h-.08l-5.11-7.5v11.35H135Z" transform="translate(-9.09 -29)"/><path class="cls-1" d="M156.49,257.79h1.58v14h-1.58Z" transform="translate(-9.09 -29)"/><path class="cls-1" d="M161.18,257.79h1.49L171.5,269V257.79h1.55v14h-1.27l-9.05-11.51v11.51h-1.55Z" transform="translate(-9.09 -29)"/><path class="cls-1" d="M176,257.79h10.08v1.46h-8.5v5h7.6v1.42h-7.6v6.12H176Z" transform="translate(-9.09 -29)"/><path class="cls-1" d="M194.67,272.06a7.12,7.12,0,0,1-2.92-.59,6.8,6.8,0,0,1-2.25-1.57,7,7,0,0,1-1.46-2.3,7.59,7.59,0,0,1-.51-2.76v0a7.6,7.6,0,0,1,.52-2.76,7.16,7.16,0,0,1,1.47-2.32,6.91,6.91,0,0,1,2.26-1.58,7.17,7.17,0,0,1,2.93-.59,6.91,6.91,0,0,1,6.62,4.46,7.5,7.5,0,0,1,.51,2.75s0,0,0,0a7.45,7.45,0,0,1-.52,2.77,7,7,0,0,1-6.65,4.49Zm0-1.47a5.36,5.36,0,0,0,2.21-.45,5.14,5.14,0,0,0,1.73-1.23,5.76,5.76,0,0,0,1.13-1.82,6,6,0,0,0,.42-2.25v0a6,6,0,0,0-.42-2.25,5.46,5.46,0,0,0-1.15-1.84,5.62,5.62,0,0,0-1.75-1.24,5.62,5.62,0,0,0-4.43,0,5.24,5.24,0,0,0-1.73,1.23,5.69,5.69,0,0,0-1.13,1.83,5.91,5.91,0,0,0-.41,2.24v0a6,6,0,0,0,.41,2.26,5.41,5.41,0,0,0,1.15,1.83,5.62,5.62,0,0,0,1.75,1.24A5.28,5.28,0,0,0,194.71,270.59Z" transform="translate(-9.09 -29)"/><path class="cls-1" d="M204.18,257.79h6a6.68,6.68,0,0,1,2.32.37,4.46,4.46,0,0,1,1.67,1,3.54,3.54,0,0,1,.8,1.22,4.11,4.11,0,0,1,.28,1.55v0a4.11,4.11,0,0,1-.28,1.57,3.48,3.48,0,0,1-.79,1.2,4.22,4.22,0,0,1-1.21.84,5.85,5.85,0,0,1-1.52.47l4.31,5.74h-1.95l-4.07-5.46h-4v5.46h-1.59Zm5.91,7.15a4.73,4.73,0,0,0,1.44-.2,3.44,3.44,0,0,0,1.15-.57,2.7,2.7,0,0,0,.75-.9,2.66,2.66,0,0,0,.27-1.21v0a2.44,2.44,0,0,0-.94-2,4.3,4.3,0,0,0-2.65-.73h-4.34v5.69Z" transform="translate(-9.09 -29)"/><path class="cls-1" d="M217.67,257.79h1.6l5.11,7.65,5.11-7.65h1.6v14h-1.58V260.45L224.4,268h-.08l-5.11-7.5v11.35h-1.54Z" transform="translate(-9.09 -29)"/><path class="cls-1" d="M239.25,257.69h1.48l6.4,14.13h-1.7l-1.65-3.71h-7.63l-1.67,3.71h-1.62Zm3.91,9L240,259.53l-3.2,7.16Zm-1.86-13.05,1.6.74-2.27,2.17h-1.24Z" transform="translate(-9.09 -29)"/><path class="cls-1" d="M252.6,259.25h-4.71v-1.46h11v1.46h-4.71v12.57H252.6Z" transform="translate(-9.09 -29)"/><path class="cls-1" d="M261,257.79h1.59v14H261Z" transform="translate(-9.09 -29)"/><path class="cls-1" d="M272.11,272.06a6.8,6.8,0,0,1-2.8-.57,6.68,6.68,0,0,1-2.22-1.53,7.11,7.11,0,0,1-1.48-2.29,7.61,7.61,0,0,1-.53-2.83v0a7.5,7.5,0,0,1,.53-2.8,7.25,7.25,0,0,1,1.48-2.32,6.73,6.73,0,0,1,2.24-1.56,7,7,0,0,1,2.85-.57,8.35,8.35,0,0,1,1.73.16,7.71,7.71,0,0,1,1.43.45,6.35,6.35,0,0,1,1.22.7,10.31,10.31,0,0,1,1.09.91l-1.09,1.16a8.76,8.76,0,0,0-1.93-1.38,5.73,5.73,0,0,0-4.63-.1,5.39,5.39,0,0,0-1.72,1.22,5.59,5.59,0,0,0-1.14,1.84,6,6,0,0,0-.42,2.25v0a6.08,6.08,0,0,0,.42,2.28,5.55,5.55,0,0,0,1.14,1.83,5.42,5.42,0,0,0,1.72,1.23,5.14,5.14,0,0,0,2.15.45,5.45,5.45,0,0,0,2.49-.53,8.68,8.68,0,0,0,2-1.49l1,1a9.72,9.72,0,0,1-1.13,1,6.82,6.82,0,0,1-1.27.77,7.4,7.4,0,0,1-1.46.51A7.78,7.78,0,0,1,272.11,272.06Z" transform="translate(-9.09 -29)"/><path class="cls-1" d="M284.68,257.69h1.48l6.39,14.13h-1.7l-1.64-3.71h-7.64l-1.66,3.71h-1.62Zm3.91,9-3.19-7.16-3.2,7.16Z" transform="translate(-9.09 -29)"/><path class="cls-1" d="M149.36,60.66a55.8,55.8,0,0,0,1.49,111.58l1.57,0a55.78,55.78,0,0,0,51.84-39.51,17.94,17.94,0,0,0,15-18.15h0a17.87,17.87,0,0,0-16-17.3A55.38,55.38,0,0,0,149.36,60.66ZM196,110a7.25,7.25,0,0,1,5.12-2.28h.21A7.34,7.34,0,1,1,196,110Zm-2.39,21.19a45.23,45.23,0,1,1-.88-31.86,17.9,17.9,0,0,0,.88,31.86Z" transform="translate(-9.09 -29)"/><path class="cls-1" d="M150.91,89a27.55,27.55,0,1,0,27.54,27.55A27.58,27.58,0,0,0,150.91,89Zm0,44.51a17,17,0,1,1,17-17A17,17,0,0,1,150.91,133.52Z" transform="translate(-9.09 -29)"/><path class="cls-1" d="M239.72,71.48a17.9,17.9,0,1,0-16,26c.52,0,1,0,1.53-.09A77.33,77.33,0,0,1,185.57,185a76.39,76.39,0,0,1-85.95-11.29,5.29,5.29,0,0,0-7.05,7.88,86.9,86.9,0,0,0,97.78,12.85c36.91-18.68,55.66-61.56,44.82-101.08A17.94,17.94,0,0,0,239.72,71.48ZM227.22,86a6.3,6.3,0,0,0-.84.37,7.2,7.2,0,0,1-4.93.17,7.33,7.33,0,0,1,2.28-14.3,7.37,7.37,0,0,1,6.55,4A7.33,7.33,0,0,1,227.22,86Z" transform="translate(-9.09 -29)"/><path class="cls-1" d="M93.6,145.45h0a17.92,17.92,0,0,0-17.08-9.78,77.34,77.34,0,0,1,39.67-87.74,76.56,76.56,0,0,1,85,10.45,5.29,5.29,0,1,0,6.92-8,87.11,87.11,0,0,0-96.7-11.89C74.54,57.15,55.79,100,66.56,139.44A17.92,17.92,0,0,0,72,170.56a18,18,0,0,0,5.6.9,17.93,17.93,0,0,0,16-26ZM80.93,160.08a7.33,7.33,0,1,1,3.23-9.85A7.29,7.29,0,0,1,80.93,160.08Z" transform="translate(-9.09 -29)"/></svg>