<svg id="Camada_1" data-name="Camada 1" xmlns="http://www.w3.org/2000/svg" viewBox="0 0 78.45 68"><defs><style>.cls-1{fill:#fff;}</style></defs><title>Logo HST 80x80</title><path class="cls-1" d="M23.92,61.27h1.22v2.19h2.25V61.27h1.22v5.54H27.39V64.58H25.14v2.23H23.92Z" transform="translate(-0.78 -6)"/><path class="cls-1" d="M31.53,66.89a3.77,3.77,0,0,1-1.24-.22A3.18,3.18,0,0,1,29.18,66l.72-.86a3.62,3.62,0,0,0,.78.49,2.08,2.08,0,0,0,.87.18,1,1,0,0,0,.59-.14.43.43,0,0,0,.21-.38v0a.46.46,0,0,0,0-.21.45.45,0,0,0-.17-.17,2.23,2.23,0,0,0-.34-.16c-.14,0-.33-.1-.57-.16s-.53-.15-.76-.23a2.43,2.43,0,0,1-.58-.31,1.31,1.31,0,0,1-.37-.47,1.55,1.55,0,0,1-.13-.69h0a1.74,1.74,0,0,1,.14-.69,1.68,1.68,0,0,1,.4-.52,1.72,1.72,0,0,1,.61-.34,2.45,2.45,0,0,1,.78-.12,3.33,3.33,0,0,1,1.12.18,3.19,3.19,0,0,1,.94.52l-.63.92a4.09,4.09,0,0,0-.73-.4,1.83,1.83,0,0,0-.71-.14.9.9,0,0,0-.54.13.44.44,0,0,0-.18.35h0a.48.48,0,0,0,.06.24.51.51,0,0,0,.18.18,2.34,2.34,0,0,0,.37.15l.59.16a7.31,7.31,0,0,1,.75.25,2,2,0,0,1,.56.33,1.25,1.25,0,0,1,.34.46,1.46,1.46,0,0,1,.12.62v0a1.7,1.7,0,0,1-.15.73,1.41,1.41,0,0,1-.42.54,1.69,1.69,0,0,1-.64.33A2.66,2.66,0,0,1,31.53,66.89Z" transform="translate(-0.78 -6)"/><path class="cls-1" d="M37.5,62.39H35.81V61.27H40.4v1.12H38.71v4.42H37.5Z" transform="translate(-0.78 -6)"/><path class="cls-1" d="M40.94,61.27h4.18v1.08h-3v1.13h2.62v1.08H42.14v1.16h3v1.09H40.94Z" transform="translate(-0.78 -6)"/><path class="cls-1" d="M48.45,66.9a2.84,2.84,0,0,1-2-.82,2.67,2.67,0,0,1-.6-.91,3,3,0,0,1-.21-1.12h0a2.89,2.89,0,0,1,.21-1.11,2.67,2.67,0,0,1,.6-.91,2.54,2.54,0,0,1,.91-.62,2.94,2.94,0,0,1,1.17-.23,3.17,3.17,0,0,1,.71.07,3,3,0,0,1,.58.17,2,2,0,0,1,.48.27,2.79,2.79,0,0,1,.42.35l-.78.89a3.29,3.29,0,0,0-.66-.46,1.73,1.73,0,0,0-.76-.16,1.5,1.5,0,0,0-.64.13,1.76,1.76,0,0,0-.52.37,1.92,1.92,0,0,0-.33.55,1.85,1.85,0,0,0-.12.67v0a1.88,1.88,0,0,0,.45,1.23,1.59,1.59,0,0,0,.51.37,1.55,1.55,0,0,0,.65.14,1.8,1.8,0,0,0,.81-.17,3.73,3.73,0,0,0,.65-.48l.78.78a5.76,5.76,0,0,1-.45.42,2.8,2.8,0,0,1-.5.31,2.64,2.64,0,0,1-.6.2A4.07,4.07,0,0,1,48.45,66.9Z" transform="translate(-0.78 -6)"/><path class="cls-1" d="M51.3,61.27h1.22v2.19h2.25V61.27H56v5.54H54.77V64.58H52.52v2.23H51.3Z" transform="translate(-0.78 -6)"/><path class="cls-1" d="M2.36,73.2A2.15,2.15,0,0,1,1.51,73a2.29,2.29,0,0,1-.73-.46l.27-.33a2.23,2.23,0,0,0,.61.42,1.81,1.81,0,0,0,.72.13A1,1,0,0,0,3,72.62a.57.57,0,0,0,.23-.48h0a.61.61,0,0,0,0-.24.49.49,0,0,0-.16-.2,1.35,1.35,0,0,0-.3-.16c-.14,0-.3-.09-.51-.13a5.13,5.13,0,0,1-.58-.17A1.46,1.46,0,0,1,1.24,71,1,1,0,0,1,1,70.69a1,1,0,0,1-.07-.41h0A1,1,0,0,1,1,69.84a.94.94,0,0,1,.27-.33,1.29,1.29,0,0,1,.4-.22,1.44,1.44,0,0,1,.51-.08,2.15,2.15,0,0,1,.75.12,2.58,2.58,0,0,1,.62.35L3.31,70a1.83,1.83,0,0,0-.55-.32,1.56,1.56,0,0,0-.57-.1.91.91,0,0,0-.6.18.56.56,0,0,0-.23.45h0a.6.6,0,0,0,0,.24.43.43,0,0,0,.16.2,1.18,1.18,0,0,0,.32.17,3.3,3.3,0,0,0,.53.14,2.29,2.29,0,0,1,1,.4.84.84,0,0,1,.31.7h0a.93.93,0,0,1-.1.45.92.92,0,0,1-.27.35,1.19,1.19,0,0,1-.42.22A1.78,1.78,0,0,1,2.36,73.2Z" transform="translate(-0.78 -6)"/><path class="cls-1" d="M6.1,73.21a2.13,2.13,0,0,1-.81-.16,2,2,0,0,1-.62-.44,1.83,1.83,0,0,1-.4-.64,1.94,1.94,0,0,1-.14-.76h0a1.94,1.94,0,0,1,2-2,1.92,1.92,0,0,1,.81.16,1.82,1.82,0,0,1,.62.43,1.78,1.78,0,0,1,.4.64,1.94,1.94,0,0,1,.15.76h0a2,2,0,0,1-.15.77,2.23,2.23,0,0,1-.4.64,2,2,0,0,1-.63.43A1.92,1.92,0,0,1,6.1,73.21Zm0-.41a1.51,1.51,0,0,0,.61-.12,1.39,1.39,0,0,0,.48-.34,1.58,1.58,0,0,0,.32-.51,1.8,1.8,0,0,0,.11-.62h0a1.8,1.8,0,0,0-.11-.62,1.77,1.77,0,0,0-.32-.51,1.54,1.54,0,0,0-.49-.34,1.5,1.5,0,0,0-1.22,0,1.27,1.27,0,0,0-.48.34,1.53,1.53,0,0,0-.32.5,1.8,1.8,0,0,0-.11.62h0a1.9,1.9,0,0,0,.11.63,1.71,1.71,0,0,0,.32.5,1.57,1.57,0,0,0,.49.35A1.54,1.54,0,0,0,6.11,72.8Z" transform="translate(-0.78 -6)"/><path class="cls-1" d="M8.73,69.26h.44v3.48h2.19v.4H8.73Z" transform="translate(-0.78 -6)"/><path class="cls-1" d="M13.44,73.2a1.67,1.67,0,0,1-.65-.11,1.34,1.34,0,0,1-.51-.32,1.38,1.38,0,0,1-.34-.53,2.27,2.27,0,0,1-.11-.72V69.26h.44v2.23a1.38,1.38,0,0,0,.31,1,1.12,1.12,0,0,0,.87.34,1.17,1.17,0,0,0,.86-.32,1.34,1.34,0,0,0,.31-1V69.26h.44v2.22a2.37,2.37,0,0,1-.11.75,1.39,1.39,0,0,1-.85.86A1.69,1.69,0,0,1,13.44,73.2Z" transform="translate(-0.78 -6)"/><path class="cls-1" d="M16.9,73.81l.43-.62a2,2,0,0,1-.68-.22,1.82,1.82,0,0,1-.53-.43,2.25,2.25,0,0,1-.35-.6,2.19,2.19,0,0,1-.12-.73h0a2,2,0,0,1,.15-.77,1.83,1.83,0,0,1,.4-.64,1.88,1.88,0,0,1,.63-.44,2,2,0,0,1,.78-.15,2.33,2.33,0,0,1,.48,0,1.7,1.7,0,0,1,.4.13,1.63,1.63,0,0,1,.34.19,3.31,3.31,0,0,1,.3.25l-.3.32a2.78,2.78,0,0,0-.54-.38,1.59,1.59,0,0,0-1.28,0,1.61,1.61,0,0,0-.48.34,1.45,1.45,0,0,0-.31.51,1.59,1.59,0,0,0-.12.62h0a1.61,1.61,0,0,0,.12.63,1.66,1.66,0,0,0,.31.51,1.61,1.61,0,0,0,.48.34,1.46,1.46,0,0,0,.6.12,1.59,1.59,0,0,0,.68-.14,2.2,2.2,0,0,0,.57-.42l.29.29a2.68,2.68,0,0,1-.63.47,1.64,1.64,0,0,1-.39.14,1.93,1.93,0,0,1-.45.07l-.36.79Z" transform="translate(-0.78 -6)"/><path class="cls-1" d="M21.44,73.21a2.09,2.09,0,0,1-.81-.16,2,2,0,0,1-.62-.44,1.7,1.7,0,0,1-.4-.64,1.94,1.94,0,0,1-.15-.76h0a2,2,0,0,1,.15-.76,1.83,1.83,0,0,1,.4-.64,2,2,0,0,1,.63-.44,1.92,1.92,0,0,1,.81-.16,2,2,0,0,1,.81.16,1.82,1.82,0,0,1,.62.43,2,2,0,0,1,.54,1.4h0a2,2,0,0,1-.14.77,2.23,2.23,0,0,1-.4.64,2,2,0,0,1-.63.43A2,2,0,0,1,21.44,73.21Zm0-.41a1.51,1.51,0,0,0,.61-.12,1.39,1.39,0,0,0,.48-.34,1.58,1.58,0,0,0,.32-.51,1.8,1.8,0,0,0,.11-.62h0a1.8,1.8,0,0,0-.11-.62,1.77,1.77,0,0,0-.32-.51,1.54,1.54,0,0,0-.49-.34,1.39,1.39,0,0,0-.61-.13,1.36,1.36,0,0,0-.61.13,1.27,1.27,0,0,0-.48.34,1.53,1.53,0,0,0-.32.5,1.8,1.8,0,0,0-.11.62h0a1.9,1.9,0,0,0,.11.63,1.71,1.71,0,0,0,.32.5,1.57,1.57,0,0,0,.49.35A1.51,1.51,0,0,0,21.45,72.8Zm-.92-3.9a1.18,1.18,0,0,1,.21-.45.41.41,0,0,1,.32-.13l.2,0,.2.08.18.07a.38.38,0,0,0,.17,0,.2.2,0,0,0,.16-.06.78.78,0,0,0,.12-.21l.26.07a1.05,1.05,0,0,1-.2.45.44.44,0,0,1-.32.13.69.69,0,0,1-.2,0l-.2-.08-.18-.08-.17,0a.24.24,0,0,0-.17.06,1,1,0,0,0-.11.21Z" transform="translate(-0.78 -6)"/><path class="cls-1" d="M24.07,69.26h2.81v.4H24.51V71h2.12v.39H24.51v1.37h2.4v.39H24.07Z" transform="translate(-0.78 -6)"/><path class="cls-1" d="M28.85,73.2A2.11,2.11,0,0,1,28,73a2.33,2.33,0,0,1-.74-.46l.27-.33a2.27,2.27,0,0,0,.62.42,1.76,1.76,0,0,0,.71.13,1,1,0,0,0,.63-.18.58.58,0,0,0,.24-.48h0a.86.86,0,0,0,0-.24.74.74,0,0,0-.16-.2,1.76,1.76,0,0,0-.31-.16,5,5,0,0,0-.5-.13,4.58,4.58,0,0,1-.58-.17,1.33,1.33,0,0,1-.41-.23.79.79,0,0,1-.24-.31,1,1,0,0,1-.08-.41h0a.88.88,0,0,1,.1-.43,1,1,0,0,1,.26-.33,1.34,1.34,0,0,1,.41-.22,1.37,1.37,0,0,1,.51-.08,2.09,2.09,0,0,1,.74.12,2.58,2.58,0,0,1,.62.35L29.8,70a2.11,2.11,0,0,0-.55-.32,1.56,1.56,0,0,0-.57-.1.94.94,0,0,0-.61.18.55.55,0,0,0-.22.45h0a.61.61,0,0,0,0,.24.51.51,0,0,0,.16.2,1.26,1.26,0,0,0,.33.17,3.15,3.15,0,0,0,.52.14,2.34,2.34,0,0,1,1,.4.87.87,0,0,1,.31.7h0a1.06,1.06,0,0,1-.1.45,1.17,1.17,0,0,1-.27.35,1.4,1.4,0,0,1-.42.22A1.78,1.78,0,0,1,28.85,73.2Z" transform="translate(-0.78 -6)"/><path class="cls-1" d="M32.17,69.26H35v.4H32.61V71h2.12v.39H32.61v1.37H35v.39H32.17Z" transform="translate(-0.78 -6)"/><path class="cls-1" d="M35.61,69.26h.44l1.42,2.12,1.41-2.12h.44v3.88h-.43V70l-1.42,2.08h0L36,70v3.13h-.42Z" transform="translate(-0.78 -6)"/><path class="cls-1" d="M41.57,69.26H42v3.88h-.44Z" transform="translate(-0.78 -6)"/><path class="cls-1" d="M42.87,69.26h.41l2.44,3.11V69.26h.43v3.88H45.8L43.29,70v3.18h-.42Z" transform="translate(-0.78 -6)"/><path class="cls-1" d="M47,69.26h2.79v.41H47.41v1.39h2.1v.39h-2.1v1.69H47Z" transform="translate(-0.78 -6)"/><path class="cls-1" d="M52.13,73.21a2.08,2.08,0,0,1-.8-.16,2,2,0,0,1-.63-.44,2,2,0,0,1-.4-.64,2.14,2.14,0,0,1-.14-.76h0a2.18,2.18,0,0,1,.14-.76,1.85,1.85,0,0,1,.41-.64,1.79,1.79,0,0,1,.63-.44,2.11,2.11,0,0,1,1.61,0,2,2,0,0,1,.63.43,2.1,2.1,0,0,1,.4.64,2.14,2.14,0,0,1,.14.76h0A2.23,2.23,0,0,1,54,72a2.26,2.26,0,0,1-.41.64,1.76,1.76,0,0,1-.63.43A1.92,1.92,0,0,1,52.13,73.21Zm0-.41a1.56,1.56,0,0,0,.62-.12,1.61,1.61,0,0,0,.48-.34,1.74,1.74,0,0,0,.31-.51,1.59,1.59,0,0,0,.11-.62h0a1.61,1.61,0,0,0-.43-1.13,1.61,1.61,0,0,0-.48-.34,1.52,1.52,0,0,0-1.23,0,1.27,1.27,0,0,0-.48.34,1.51,1.51,0,0,0-.31.5,1.59,1.59,0,0,0-.12.62h0a1.68,1.68,0,0,0,.12.63,1.38,1.38,0,0,0,.32.5,1.52,1.52,0,0,0,.48.35A1.54,1.54,0,0,0,52.14,72.8Z" transform="translate(-0.78 -6)"/><path class="cls-1" d="M54.77,69.26h1.67a1.83,1.83,0,0,1,.64.11,1.19,1.19,0,0,1,.46.28,1,1,0,0,1,.22.34,1.16,1.16,0,0,1,.08.42v0a1.18,1.18,0,0,1-.08.43.83.83,0,0,1-.22.33,1,1,0,0,1-.33.24,1.87,1.87,0,0,1-.42.13L58,73.14h-.54l-1.13-1.51h-1.1v1.51h-.44Zm1.63,2a1.62,1.62,0,0,0,.4,0,1.07,1.07,0,0,0,.32-.16.72.72,0,0,0,.21-.25.74.74,0,0,0,.07-.34h0a.65.65,0,0,0-.26-.56,1.13,1.13,0,0,0-.73-.2h-1.2v1.57Z" transform="translate(-0.78 -6)"/><path class="cls-1" d="M58.5,69.26h.44l1.42,2.12,1.41-2.12h.45v3.88h-.44V70l-1.42,2.08h0L58.93,70v3.13H58.5Z" transform="translate(-0.78 -6)"/><path class="cls-1" d="M64.47,69.24h.41l1.77,3.9h-.47l-.45-1H63.61l-.46,1H62.7Zm1.08,2.48-.88-2-.88,2ZM65,68.12l.44.2-.62.6h-.35Z" transform="translate(-0.78 -6)"/><path class="cls-1" d="M68.17,69.67H66.86v-.41h3v.41H68.6v3.47h-.43Z" transform="translate(-0.78 -6)"/><path class="cls-1" d="M70.5,69.26h.43v3.88H70.5Z" transform="translate(-0.78 -6)"/><path class="cls-1" d="M73.57,73.21a1.85,1.85,0,0,1-.78-.16,1.75,1.75,0,0,1-.61-.42,1.85,1.85,0,0,1-.41-.64,2,2,0,0,1-.15-.78h0a2,2,0,0,1,.15-.77,2,2,0,0,1,1-1.08,2,2,0,0,1,.78-.15,2.33,2.33,0,0,1,.48,0,1.57,1.57,0,0,1,.4.13,1.41,1.41,0,0,1,.34.19,3.31,3.31,0,0,1,.3.25l-.3.32a2.78,2.78,0,0,0-.54-.38,1.42,1.42,0,0,0-.68-.15,1.5,1.5,0,0,0-.6.12,1.45,1.45,0,0,0-.47.34,1.48,1.48,0,0,0-.32.51,1.59,1.59,0,0,0-.11.62h0a1.61,1.61,0,0,0,.11.63,1.69,1.69,0,0,0,.32.51,1.45,1.45,0,0,0,.47.34,1.5,1.5,0,0,0,.6.12,1.63,1.63,0,0,0,.69-.14,2.34,2.34,0,0,0,.56-.42l.29.29-.31.28a2.12,2.12,0,0,1-.36.21,2.35,2.35,0,0,1-.4.14A2.28,2.28,0,0,1,73.57,73.21Z" transform="translate(-0.78 -6)"/><path class="cls-1" d="M77,69.24h.42l1.76,3.9h-.47l-.45-1H76.18l-.46,1h-.44Zm1.09,2.48-.89-2-.88,2Z" transform="translate(-0.78 -6)"/><path class="cls-1" d="M39.6,14.75A15.43,15.43,0,0,0,40,45.61h.43A15.43,15.43,0,0,0,54.79,34.68a5,5,0,0,0,4.14-5h0a5,5,0,0,0-4.41-4.79A15.35,15.35,0,0,0,39.6,14.75ZM52.51,28.4a2,2,0,0,1,1.41-.63H54a2,2,0,1,1-2,2.08A2,2,0,0,1,52.51,28.4Zm-.66,5.86a12.52,12.52,0,0,1-20.43,5A12.51,12.51,0,1,1,51.6,25.45a5,5,0,0,0-1.22.94,4.94,4.94,0,0,0,1.47,7.87Z" transform="translate(-0.78 -6)"/><path class="cls-1" d="M40,22.59a7.62,7.62,0,1,0,7.63,7.62A7.63,7.63,0,0,0,40,22.59ZM40,34.9a4.69,4.69,0,1,1,4.7-4.69A4.69,4.69,0,0,1,40,34.9Z" transform="translate(-0.78 -6)"/><path class="cls-1" d="M64.6,17.75a5,5,0,1,0-4.42,7.19,3,3,0,0,0,.43,0,21.39,21.39,0,0,1-11,24.22A21.16,21.16,0,0,1,25.83,46a1.46,1.46,0,1,0-1.95,2.18,24,24,0,0,0,27.06,3.55,24.33,24.33,0,0,0,12.4-27.95A5,5,0,0,0,64.6,17.75Zm-3.46,4-.23.1a1.93,1.93,0,0,1-1.36.05,2,2,0,0,1-.29-3.73,2,2,0,0,1,1.55-.12,2,2,0,0,1,.33,3.7Z" transform="translate(-0.78 -6)"/><path class="cls-1" d="M24.17,38.2h0a5,5,0,0,0-4.73-2.71,21.25,21.25,0,0,1,34.5-21.36,1.47,1.47,0,0,0,1.92-2.22A24.19,24.19,0,0,0,16.68,36.54a5,5,0,0,0,3.07,8.85,5,5,0,0,0,4.42-7.19Zm-3.51,4a2,2,0,0,1-1.55.12,2,2,0,0,1-1.3-2.56,2,2,0,0,1,1-1.17,2,2,0,0,1,.91-.22,2,2,0,0,1,.92,3.83Z" transform="translate(-0.78 -6)"/></svg>